<?xml version="1.0" encoding="iso-8859-1"?>
<!-- Uploaded to: SVG Repo, www.svgrepo.com, Generator: SVG Repo Mixer Tools -->
<svg fill="#000000" height="800px" width="800px" version="1.1" id="Layer_1" xmlns="http://www.w3.org/2000/svg" xmlns:xlink="http://www.w3.org/1999/xlink" 
	 viewBox="0 0 512 512" xml:space="preserve">
<g>
	<g>
		<path d="M481.129,405.099h-66.466v-47.824c0-4.661-3.778-8.44-8.44-8.44H264.439V312.28l107.644-71.763
			c2.348-1.565,3.758-4.2,3.758-7.022s-1.41-5.458-3.758-7.022L264.439,154.71v-47.808h92.835c4.662,0,8.44-3.779,8.44-8.44V8.44
			c0-4.661-3.778-8.44-8.44-8.44H154.725c-4.662,0-8.44,3.779-8.44,8.44v90.022c0,4.661,3.778,8.44,8.44,8.44h92.835v47.808
			l-46.982,31.322c-3.878,2.585-4.926,7.825-2.341,11.703c2.587,3.879,7.827,4.928,11.703,2.341l46.06-30.706l96.187,64.125
			l-96.187,64.127l-96.188-64.126l20.789-13.859c3.878-2.585,4.926-7.825,2.341-11.703c-2.585-3.879-7.826-4.925-11.703-2.341
			l-31.322,20.881c-2.348,1.565-3.758,4.2-3.758,7.022s1.41,5.456,3.758,7.022L247.56,312.28v36.556H105.775
			c-4.662,0-8.44,3.779-8.44,8.44v47.824H30.87c-4.662,0-8.44,3.779-8.44,8.44v90.022c0,4.661,3.778,8.44,8.44,8.44h149.811
			c4.662,0,8.44-3.779,8.44-8.44v-90.022c0-4.661-3.778-8.44-8.44-8.44h-66.467v-39.385h283.569v39.385h-66.465
			c-4.662,0-8.44,3.779-8.44,8.44v90.022c0,4.661,3.778,8.44,8.44,8.44h85.648c4.662,0,8.44-3.779,8.44-8.44s-3.778-8.44-8.44-8.44
			h-77.208v-73.143H472.69v73.143h-20.944c-4.662,0-8.44,3.779-8.44,8.44s3.778,8.44,8.44,8.44h29.383c4.662,0,8.44-3.779,8.44-8.44
			v-90.022C489.568,408.878,485.791,405.099,481.129,405.099z M163.164,90.022V16.879h185.67v73.143H163.164z M172.242,421.978
			v73.143h-0.001H39.31v-73.143H172.242z"/>
	</g>
</g>
</svg>