<?xml version="1.0" encoding="iso-8859-1"?>
<!-- Uploaded to: SVG Repo, www.svgrepo.com, Generator: SVG Repo Mixer Tools -->
<svg fill="#000000" height="800px" width="800px" version="1.1" id="Layer_1" xmlns="http://www.w3.org/2000/svg" xmlns:xlink="http://www.w3.org/1999/xlink" 
	 viewBox="0 0 512 512" xml:space="preserve">
<g>
	<g>
		<path d="M336.602,160.441L263.354,27.866c-1.479-2.678-4.295-4.339-7.354-4.339c-3.059,0-5.876,1.661-7.354,4.339l-73.247,132.576
			c-1.439,2.603-1.394,5.772,0.118,8.333c1.51,2.561,4.262,4.132,7.235,4.132h146.496c2.973,0,5.726-1.572,7.237-4.133
			C337.996,166.213,338.041,163.043,336.602,160.441z M196.994,156.103L256,49.305l59.006,106.797H196.994z"/>
	</g>
</g>
<g>
	<g>
		<path d="M419.135,309.82l-63.963-115.769c-1.479-2.678-4.295-4.339-7.354-4.339H164.183c-3.059,0-5.876,1.661-7.354,4.339
			l-15.64,28.308c-2.244,4.062-0.771,9.174,3.292,11.417c4.062,2.244,9.175,0.771,11.417-3.292l13.243-23.969h173.72l54.678,98.964
			H114.462l25.094-45.419c2.244-4.061,0.771-9.173-3.292-11.417c-4.062-2.245-9.173-0.771-11.418,3.29l-31.982,57.885
			c-1.439,2.603-1.394,5.772,0.118,8.333c1.511,2.563,4.264,4.134,7.237,4.134h311.56c2.973,0,5.726-1.572,7.237-4.133
			C420.529,315.592,420.574,312.423,419.135,309.82z"/>
	</g>
</g>
<g>
	<g>
		<path d="M510.952,476.006l-73.247-132.574c-1.479-2.678-4.295-4.339-7.354-4.339H81.65c-3.059,0-5.876,1.661-7.354,4.339
			L58.04,372.853c-2.244,4.062-0.771,9.175,3.292,11.418c4.062,2.244,9.175,0.771,11.417-3.292l13.859-25.082h338.785l63.962,115.77
			H22.644l33.688-60.974c2.244-4.061,0.771-9.175-3.292-11.419c-4.061-2.244-9.173-0.771-11.417,3.292l-40.576,73.44
			c-1.437,2.603-1.393,5.772,0.118,8.333c1.511,2.561,4.264,4.133,7.237,4.133h495.195c2.973,0,5.726-1.572,7.237-4.133
			C512.345,481.778,512.39,478.609,510.952,476.006z"/>
	</g>
</g>
</svg>